<?xml version="1.0" encoding="UTF-8"?><svg id="Layer_1" xmlns="http://www.w3.org/2000/svg" viewBox="0 0 292 516"><defs><style>.cls-1{fill:#c49f58;}</style></defs><path class="cls-1" d="M279.67,185.76C255.69,152.57,199.43,92.19,110.89,4.62c55.35,111.55,95.02,183.92,119,217.12,11.92,16.49,32.73,21.81,46.47,11.88,13.75-9.93,15.23-31.36,3.31-47.86Z"/><path class="cls-1" d="M247.81,251.65c-40.6-5.29-123.14-5.71-247.58-1.25,119.17,36.16,199.05,56.87,239.66,62.16,20.18,2.62,38.32-8.87,40.51-25.7,2.19-16.82-12.4-32.59-32.58-35.21h0Z"/><path class="cls-1" d="M237.85,337.23c-31.75,25.85-88.79,85.5-171.11,178.94,108.18-61.69,178.14-105.46,209.9-131.32,15.78-12.84,19.89-33.92,9.18-47.07-10.71-13.16-32.2-13.4-47.97-.54h0Z"/><path class="cls-1" d="M183.6,318.85c-20.97,8.2-60.88,29.86-119.68,64.94,67.02-14.12,111.02-25.28,131.99-33.48,10.42-4.08,16.12-14.43,12.72-23.11-3.4-8.69-14.61-12.43-25.03-8.35h0Z"/><path class="cls-1" d="M197.72,204.07c-20.23-9.89-63.16-24.63-128.8-44.2,55.74,39.8,93.72,64.65,113.96,74.54,10.05,4.93,21.53,2.12,25.63-6.26,4.09-8.38-.73-19.16-10.79-24.08h0Z"/><path class="cls-1" d="M289.04,124.62c-6.38-21.59-24.56-63.19-54.5-124.79,8.35,67.99,15.71,112.77,22.11,134.36,3.17,10.74,12.99,17.3,21.94,14.66,8.95-2.65,13.63-13.5,10.45-24.23h0Z"/></svg>