<?xml version="1.0" encoding="UTF-8"?><svg id="Layer_1" xmlns="http://www.w3.org/2000/svg" viewBox="0 0 1319.28 522.03"><defs><style>.cls-1{fill:#fff;}.cls-2{fill:#c49f58;}.cls-3{fill:none;stroke:#c49f58;stroke-miterlimit:10;stroke-width:4.23px;}</style></defs><path d="M370.84,277.53c4.2-1.34,7.65-3.77,10.29-7.24,3.03-4,4.57-8.66,4.57-13.85,0-4.02-.93-7.96-2.75-11.7-1.83-3.74-4.45-6.86-7.82-9.26-3.08-2.21-6.51-3.63-10.21-4.2-3.64-.57-7.34-.85-11.03-.85h-47.86v97.97h44.9c2.17,0,4.46-.04,6.79-.14,2.34-.09,4.73-.31,7.11-.64,2.39-.34,4.71-.89,6.89-1.65,2.21-.77,4.3-1.84,6.22-3.18,3.57-2.51,6.18-5.98,7.78-10.31,1.57-4.28,2.37-8.57,2.37-12.76,0-5.96-1.79-11.02-5.31-15.02-3.09-3.52-7.11-5.92-11.95-7.16Zm-15.13-14.43c-.44,1.03-1.09,1.95-1.98,2.76-.93,.92-2.06,1.41-3.46,1.5-1.51,.1-2.99,.14-4.4,.14h-11.33v-15.05h10.91c1.36,0,2.74,.09,4.07,.27,1.29,.18,2.48,.54,3.53,1.07,1.01,.5,1.82,1.25,2.41,2.22,.59,.98,.89,2.31,.89,3.97,0,1.02-.22,2.08-.65,3.13Zm-21.17,26.26h11.05c1.27,0,2.66,.04,4.26,.14,1.45,.09,2.81,.45,4.03,1.04,1.3,.69,2.36,1.68,3.14,2.92,.78,1.24,1.17,2.6,1.17,4.06,0,1.19-.3,2.35-.91,3.47-.61,1.12-1.4,2.03-2.39,2.75-1.11,.93-2.36,1.45-3.71,1.53-1.48,.09-2.99,.14-4.47,.14h-12.18v-16.04Z"/><polygon points="398.78 328.4 472.66 328.4 472.66 303.99 429.11 303.99 429.11 289.64 464.34 289.64 464.34 266.64 429.11 266.64 429.11 253.98 472.66 253.98 472.66 230.42 398.78 230.42 398.78 328.4"/><path d="M552.1,235.58c-4.29-2.48-9-3.98-14-4.45-4.95-.47-9.87-.71-14.65-.71h-40.11v97.97h31.31v-35.09h14.44c4.72,0,9.45-.5,14.02-1.49,4.64-1.01,8.92-3.06,12.74-6.12,3.64-2.96,6.4-6.6,8.22-10.81,1.81-4.2,2.73-8.7,2.73-13.37,0-5.35-1.31-10.36-3.89-14.91-2.58-4.54-6.21-8.24-10.81-11.02Zm-37.45,18.26h7.95c1.67,0,3.36,.07,5.02,.21,1.6,.13,3.03,.51,4.28,1.13,1.21,.6,2.22,1.49,3,2.61,.77,1.11,1.16,2.69,1.16,4.7s-.43,3.75-1.28,4.9c-.87,1.17-1.97,2.05-3.27,2.61-1.33,.58-2.87,.95-4.58,1.08-1.78,.14-3.52,.2-5.16,.2h-7.1v-17.45Z"/><polygon points="570.15 328.4 600.34 328.4 600.34 254.69 641.35 254.69 641.35 230.42 570.15 230.42 570.15 328.4"/><rect x="648.93" y="230.42" width="31.17" height="97.97"/><path d="M752.8,258.04l1.97,24.9-31.54-52.52h-29.06v97.97h25.4v-45.74c0-3.31-.15-6.12-.43-8.33-.19-1.53-.5-3.28-.92-5.25l6.78,13.78,27.76,45.24,.19,.31h25.25v-97.97h-25.4v27.62Z"/><path d="M848.49,230.87l-.14-.45h-32.24l-30.42,97.97h25.45l5.92-19.03h24.82l5.5,19.03h31.67l-30.57-97.52Zm-12.04,56.06h-14.07l7.04-25.01,7.04,25.01Z"/><path class="cls-2" d="M285.3,188.78c-23.98-33.19-80.24-93.57-168.78-181.14,55.35,111.55,95.02,183.92,119,217.12,11.92,16.49,32.73,21.81,46.47,11.88,13.75-9.93,15.23-31.36,3.31-47.86Z"/><path class="cls-2" d="M253.44,254.67c-40.6-5.29-123.14-5.71-247.58-1.25,119.17,36.16,199.05,56.87,239.66,62.16,20.18,2.62,38.32-8.87,40.51-25.7,2.19-16.82-12.4-32.59-32.58-35.21Z"/><path class="cls-2" d="M243.48,340.25c-31.75,25.85-88.79,85.5-171.11,178.94,108.18-61.69,178.14-105.46,209.9-131.32,15.78-12.84,19.89-33.92,9.18-47.07-10.71-13.16-32.2-13.4-47.97-.54Z"/><path class="cls-2" d="M189.23,321.87c-20.97,8.2-60.88,29.86-119.68,64.94,67.02-14.12,111.02-25.28,131.99-33.48,10.42-4.08,16.12-14.43,12.72-23.11-3.4-8.69-14.61-12.43-25.03-8.35Z"/><path class="cls-2" d="M203.35,207.09c-20.23-9.89-63.16-24.63-128.8-44.2,55.74,39.8,93.72,64.65,113.96,74.54,10.05,4.93,21.53,2.12,25.63-6.26,4.09-8.38-.73-19.16-10.79-24.08Z"/><path class="cls-2" d="M294.67,127.64c-6.38-21.59-24.56-63.19-54.5-124.79,8.35,67.99,15.71,112.77,22.11,134.36,3.17,10.74,12.99,17.3,21.94,14.66,8.95-2.65,13.63-13.5,10.45-24.23Z"/><path class="cls-3" d="M1247.71,301.21c18.32-3.34,35.57-13.02,48.13-28.69,27.66-34.52,22.1-84.93-12.42-112.59-34.52-27.66-84.93-22.1-112.6,12.42-13.06,16.3-18.71,36.15-17.4,55.47"/><path class="cls-3" d="M1171.81,225.78c-.8-14.61,3.56-29.56,13.43-41.88,21.28-26.55,60.06-30.83,86.61-9.55,26.55,21.28,30.83,60.06,9.55,86.61-9.5,11.86-22.5,19.26-36.34,21.94"/><path class="cls-3" d="M1245.07,282.9c13.84-2.68,26.84-10.08,36.34-21.94,21.28-26.55,17-65.33-9.55-86.61-26.55-21.28-65.33-17-86.61,9.55-9.87,12.32-14.23,27.27-13.43,41.88"/><path class="cls-3" d="M1192.29,223.52c-.25-9.38,2.66-18.89,8.99-26.78,14.19-17.7,40.04-20.55,57.74-6.37,17.7,14.19,20.55,40.04,6.37,57.74-6.11,7.63-14.39,12.48-23.25,14.42"/><path class="cls-3" d="M1242.14,262.53c8.86-1.94,17.14-6.79,23.25-14.42,14.19-17.7,11.34-43.55-6.37-57.74-17.7-14.19-43.55-11.34-57.74,6.37-6.33,7.89-9.24,17.4-8.99,26.78"/><path class="cls-2" d="M1258.12,219.7c-.73-6.62-4-12.56-9.19-16.73-5.2-4.17-11.7-6.06-18.33-5.33-6.62,.73-12.56,4-16.72,9.19-3.34,4.17-5.22,9.22-5.43,14.59l2.11,.08h0s0,0,0,0l2.11,.08c0-.11,.02-.21,.03-.32l23.14-2.55,3.39,23.52c-.09,.03-.17,.07-.26,.1l.57,2.04h0s0,0,0,0l.57,2.04c5.04-1.42,9.43-4.32,12.69-8.39,4.17-5.2,6.06-11.71,5.33-18.33Z"/><polygon class="cls-2" points="1250.29 319.13 1246.2 301.48 1242.02 283.41 1237.35 263.29 1233.17 245.23 1229.65 230.02 1211.83 230.02 1192.99 230.02 1172.2 230.02 1153.61 230.02 1138.68 230.02 863.45 230.02 893.4 327.2 1149.4 327.2 1197.45 327.2 1252.16 327.2 1250.29 319.13"/><g><path class="cls-1" d="M943.1,243.94c-9.53,0-17.23,3.72-24.08,11.67v-8.58c0-.44-.36-.79-.79-.79h-19.11c-.44,0-.79,.36-.79,.79v68.91c0,.44,.36,.79,.79,.79h19.53c.44,0,.79-.36,.79-.79v-33.09c0-6.24,.22-10.65,3.23-14.79,2.87-4.05,7.28-6.28,12.42-6.28,10.33,0,11.99,5.92,11.99,20.07v34.1c0,.44,.36,.79,.79,.79h19.53c.44,0,.79-.36,.79-.79v-42.44c0-7.69-.2-13.12-2.91-18.22-4.24-7.63-11.5-11.34-22.19-11.34Z"/><path class="cls-1" d="M1011.66,243.94c-21.06,0-36.34,15.94-36.34,37.91s14.21,37.62,36.2,37.62c14.51,0,25.16-5.96,32.57-18.22,.11-.19,.14-.42,.08-.63-.06-.21-.21-.39-.4-.49l-15.74-8.06c-.37-.19-.82-.06-1.04,.29-3.33,5.46-8.26,8.11-15.06,8.11-8.76,0-13.84-4.33-15.5-13.23h49.64c.41,0,.76-.32,.79-.73,.14-1.71,.28-3.48,.28-5.24,0-23.03-13.6-37.34-35.5-37.34Zm0,17.99c8.06,0,12.81,3.92,14.11,11.65h-28.75c1.67-7.73,6.59-11.65,14.63-11.65Z"/><path class="cls-1" d="M1166.92,246.24h-21.22c-.35,0-.66,.23-.76,.57l-10.54,35.53c-.89,2.92-1.95,6.55-2.88,10.51-.81-5.61-1.32-8.83-1.78-10.36l-9.69-35.67c-.09-.35-.41-.59-.77-.59h-21.36c-.36,0-.68,.24-.77,.59l-8.99,34.38c-.96,3.53-1.75,7.22-2.4,11.19-.9-4.5-1.94-8.1-2.96-11.35l-10.26-34.24c-.1-.34-.41-.57-.76-.57h-21.36c-.26,0-.5,.12-.64,.33s-.19,.48-.11,.72l23.32,68.91c.11,.32,.41,.54,.75,.54h20.8c.35,0,.66-.23,.76-.57l10.4-35.98c1-3.65,1.91-7.64,2.82-12.35,.85,3.6,1.75,6.78,2.5,9.47,.32,1.12,.61,2.18,.88,3.17l10.12,35.68c.1,.34,.41,.58,.76,.58h20.8c.34,0,.64-.22,.75-.54l23.32-68.91c.08-.24,.04-.51-.11-.72s-.39-.33-.64-.33Z"/><path class="cls-1" d="M1205.25,274.34l-2.41-.8c-8.24-2.73-12.78-4.24-12.78-8.8,0-3.48,3.58-5.82,8.9-5.82s9.05,2.54,10.48,7.35c.07,.23,.23,.41,.45,.5,.22,.09,.46,.09,.67-.02l14.33-7.34c.37-.19,.53-.64,.36-1.03-4.13-9.35-13.61-14.72-26.02-14.72-17.37,0-29.04,9.4-29.04,23.38,0,10.97,7.91,16.17,21.59,21.46,1.73,.66,3.33,1.22,4.78,1.72,6.53,2.26,9.18,3.34,9.18,7.61,0,3.74-3.54,5.97-9.46,5.97s-10.51-3.06-11.44-7.99c-.05-.25-.21-.46-.43-.57-.23-.11-.49-.1-.71,.01l-15.03,7.91c-.35,.18-.51,.6-.38,.97,3.43,9.61,14.05,15.35,28.43,15.35,17.89,0,29.46-9.06,29.46-23.09,0-10.69-6.06-17.08-20.91-22.04Z"/></g></svg>